<?xml version="1.0" encoding="UTF-8"?><svg id="a" xmlns="http://www.w3.org/2000/svg" viewBox="0 0 597.41 597.41"><defs><style>.b{stroke-linecap:round;stroke-linejoin:round;stroke-width:5px;}.b,.c{fill:#fff;}.b,.c,.d{stroke:#fff;}.e,.f,.d{fill:#ffcc05;}.g,.h{fill:#e22327;}.i{fill:#1f3e77;}.j{fill:#221f1f;}.c,.h,.f,.d{stroke-miterlimit:10;}.h{stroke:#b62426;}.f{stroke:#1f3e77;stroke-width:17px;}.d{stroke-width:29px;}</style></defs><circle cx="298.71" cy="298.71" r="298.71"/><g><path class="c" d="M132.12,269.43V120.41s81.01,82.4,165.13-24.55c0,0,81.81,102.86,165.27,25.71v153.7l-330.4-5.84Z"/><path class="c" d="M132.2,269.43H462.59v156.62s1.74,28.05-47.53,62.53c0,0-34.2,22.21-58.54,30.39,0,0-52.32,25.71-58.62,33.31,0,0-46.3-28.64-89.19-45,0,0-72.45-37.4-76.51-74.22v-163.63Z"/><path class="c" d="M152.48,285.8H443.46v123.31s5.8,28.64-28.4,52.6c0,0-41.73,30.39-64.92,36.82,0,0-41.36,19.8-51.98,27.14,0,0-44.82-25.97-64.53-31.81,0,0-51.59-26.3-56.22-33.31l-13.33-12.86s-15.07-6.43-11.59-50.26v-111.62Z"/><g><path class="j" d="M225.76,395.43c-9.6-2.3-19.26-5.2-28.53-8.58-.45,21.46-.9,42.92-1.35,64.37-.16,7.67-2.39,10.28-6.42,7.41-7.33-5.21-10.88-8.06-17.69-14.24-3.74-3.4-5.59-8.7-5.59-15.32,0-42.43,0-84.86,0-127.28,0-6.63,2.24-10,6.6-9.93,18.3,.29,36.61,.53,54.91,.71,4.37,.04,6.53,4.41,6.35,12.87-.2,9.22-.3,13.83-.5,23.05-.18,8.45-2.55,12.57-6.93,12.04-9.46-1.11-18.93-2.49-28.31-4.13-.13,6.32-.2,9.48-.33,15.8,9.45,2.2,19.07,4.06,28.65,5.56,4.39,.7,6.57,5.37,6.39,13.83l-.27,12.56c-.18,8.46-2.57,12.34-6.97,11.26Z"/><path class="j" d="M287.07,497.68c-38.31-2.66-45.16-54.24-44.51-83.68,.7-36.07,1.41-72.13,2.11-108.2,.17-8.62,2.51-13.05,6.89-13.02,7.96,.05,11.94,.07,19.9,.1,4.38,.02,6.59,4.64,6.52,13.6l-.85,97.53c-.15,9.11-.02,30.56,10.24,31.15,9.83,.56,10.85-22.56,10.55-30.35,.02-32.74,.05-65.47,.07-98.21,0-9.03,2.27-13.68,6.65-13.68,7.96,0,11.95-.01,19.91-.04,4.38-.01,6.69,4.56,6.8,13.45,.46,37.2,.92,74.4,1.38,111.59,.42,27.88-6.37,82.48-45.64,79.75Z"/><path class="j" d="M428.82,446.67c-1.57,1.49-3.29,1.4-5.17,0-16.38-12.28-29.47-28.15-42.19-44.03,.46,19.84,.92,39.69,1.38,59.53,.19,8.19-1.94,13.54-6.36,15.48-8.03,3.53-12.13,5.05-20.43,7.61-4.57,1.41-7.03-2.51-7.18-11.25-.97-56.79-1.95-113.57-2.92-170.36-.17-9.8,2.26-15.1,5.44-15.1,1.85,0,3.62,2.1,5.81,5.72,13.73,23.46,28.05,46.28,43.98,68.32,.21-.05,.31-.08,.52-.14-.41-19.52-.82-39.04-1.23-58.57-.16-7.67,2.01-11.65,6.37-11.71,7.94-.11,11.9-.17,19.83-.3,4.36-.07,6.6,3.3,6.6,9.92,0,43.03,0,86.06,0,129.09,0,7.03-1.86,13.34-4.44,15.78Z"/></g><polyline class="c" points="165.41 468.76 183.84 471.73 442.97 311.41 450.69 281.12 424.54 281.12 157.09 449.17"/><g><polygon class="b" points="197.44 164.43 163.79 195.3 168.73 200.77 202.38 169.91 197.44 164.43"/><polygon class="b" points="201.76 196.2 169.6 163.77 164.41 169 196.57 201.43 201.76 196.2"/></g><g><polygon class="b" points="197.44 218.75 163.79 249.62 168.73 255.09 202.38 224.22 197.44 218.75"/><polygon class="b" points="201.76 250.52 169.6 218.09 164.41 223.32 196.57 255.75 201.76 250.52"/></g><g><polygon class="b" points="259.28 164.43 225.63 195.3 230.57 200.77 264.22 169.91 259.28 164.43"/><polygon class="b" points="263.6 196.2 231.43 163.77 226.24 169 258.41 201.43 263.6 196.2"/></g><g><polygon class="b" points="259.28 218.75 225.63 249.62 230.57 255.09 264.22 224.22 259.28 218.75"/><polygon class="b" points="263.6 250.52 231.43 218.09 226.24 223.32 258.41 255.75 263.6 250.52"/></g><g><polygon class="b" points="376.14 164.43 342.5 195.3 347.44 200.77 381.08 169.91 376.14 164.43"/><polygon class="b" points="380.47 196.2 348.3 163.77 343.11 169 375.28 201.43 380.47 196.2"/></g><g><polygon class="b" points="376.14 218.75 342.5 249.62 347.44 255.09 381.08 224.22 376.14 218.75"/><polygon class="b" points="380.47 250.52 348.3 218.09 343.11 223.32 375.28 255.75 380.47 250.52"/></g><g><polygon class="b" points="435.35 164.43 401.7 195.3 406.64 200.77 440.29 169.91 435.35 164.43"/><polygon class="b" points="439.67 196.2 407.51 163.77 402.32 169 434.48 201.43 439.67 196.2"/></g><g><polygon class="b" points="435.35 218.75 401.7 249.62 406.64 255.09 440.29 224.22 435.35 218.75"/><polygon class="b" points="439.67 250.52 407.51 218.09 402.32 223.32 434.48 255.75 439.67 250.52"/></g></g><path class="i" d="M146.25,280.19V145.46s73.84,74.5,150.52-22.19c0,0,74.57,92.99,150.65,23.25v138.96l-301.17-5.28Z"/><path class="h" d="M146.32,280.19H447.48v141.6s1.59,25.36-43.32,56.53c0,0-31.17,20.08-53.36,27.47,0,0-47.69,23.25-53.43,30.12,0,0-42.2-25.89-81.3-40.68,0,0-66.04-33.81-69.74-67.1v-147.94Z"/><path class="c" d="M164.81,294.98H430.04v111.48s5.28,25.89-25.89,47.55c0,0-38.04,27.47-59.18,33.29,0,0-37.7,17.9-47.38,24.53,0,0-40.85-23.48-58.82-28.76,0,0-47.02-23.78-51.25-30.12l-12.15-11.62s-13.74-5.81-10.57-45.44v-100.91Z"/><g><path class="j" d="M231.6,394.1c-10.6-2.58-15.82-4.13-26.01-7.75-.41,19.4-.82,38.8-1.23,58.2-.15,6.93-2.17,9.29-5.85,6.7-6.68-4.71-9.92-7.29-16.12-12.87-3.41-3.07-5.1-7.86-5.1-13.85,0-38.36,0-76.72,0-115.07,0-5.99,2.04-9.04,6.02-8.97,16.68,.27,33.37,.49,50.05,.65,3.99,.04,5.95,3.99,5.79,11.63-.18,8.34-.27,12.51-.46,20.84-.17,7.64-2.32,11.36-6.32,10.89-10.42-1.25-15.59-1.99-25.81-3.73-.12,5.72-.18,8.57-.3,14.29,10.31,2.35,15.54,3.35,26.12,5.02,4,.63,5.99,4.85,5.83,12.5-.1,4.54-.15,6.81-.25,11.36-.17,7.65-2.34,11.15-6.35,10.18Z"/><path class="j" d="M287.49,486.54c-34.46-1.97-41.43-48.93-40.57-75.66,.64-32.61,1.28-65.21,1.92-97.82,.15-7.8,2.29-11.8,6.28-11.77,7.25,.05,10.88,.06,18.14,.09,3.99,.01,6.01,4.2,5.94,12.3l-.77,88.17c-.15,9.1,.89,27.78,9.34,28.16,8.09,.37,9.93-19.27,9.62-27.44l.06-88.79c0-8.16,2.07-12.36,6.06-12.37,7.26,0,10.89-.01,18.14-.03,3.99-.01,6.1,4.12,6.2,12.16,.42,33.63,.84,67.26,1.25,100.89,.41,26.13-6.06,74.13-41.61,72.1Z"/><path class="j" d="M416.7,440.42c-1.43,1.34-3,1.26-4.71,0-14.97-10.91-26.87-25.55-38.46-39.8,.42,17.94,.84,35.88,1.26,53.82,.17,7.4-1.77,12.24-5.79,13.99-7.32,3.19-11.06,4.57-18.63,6.88-4.16,1.27-6.41-2.26-6.54-10.17-.89-51.34-1.77-102.68-2.66-154.02-.15-8.86,2.06-13.65,4.96-13.65,1.69,0,3.3,1.9,5.3,5.17,12.49,21.16,25.38,42.05,40.09,61.77,.19-.05,.28-.07,.47-.12-.37-17.65-.75-35.3-1.12-52.95-.15-6.93,1.83-10.53,5.81-10.59,7.23-.1,10.85-.16,18.07-.27,3.97-.07,6.02,2.98,6.02,8.97,0,38.9,0,77.81,0,116.71,0,6.35-1.69,12.06-4.05,14.27Z"/></g><polyline class="g" points="176.6 460.4 193.39 463.08 429.59 318.13 436.64 290.75 412.8 290.75 169.01 442.68"/><g><rect class="b" x="171.97" y="198.34" width="41.46" height="6.69" transform="translate(-85.56 182.2) rotate(-42.3)"/><rect class="b" x="171.97" y="198.34" width="41.46" height="6.69" transform="translate(199.05 -77.19) rotate(45)"/></g><g><rect class="b" x="171.97" y="247.44" width="41.46" height="6.69" transform="translate(-118.61 194.99) rotate(-42.3)"/><rect class="b" x="171.97" y="247.44" width="41.46" height="6.69" transform="translate(233.78 -62.81) rotate(45)"/></g><g><rect class="b" x="228.34" y="198.34" width="41.46" height="6.69" transform="translate(-70.89 220.14) rotate(-42.3)"/><rect class="b" x="228.34" y="198.34" width="41.46" height="6.69" transform="translate(215.56 -117.05) rotate(45)"/></g><g><rect class="b" x="228.34" y="247.44" width="41.46" height="6.69" transform="translate(-103.93 232.92) rotate(-42.3)"/><rect class="b" x="228.34" y="247.44" width="41.46" height="6.69" transform="translate(250.29 -102.67) rotate(45)"/></g><g><rect class="b" x="334.87" y="198.34" width="41.46" height="6.69" transform="translate(-43.15 291.83) rotate(-42.3)"/><rect class="b" x="334.87" y="198.34" width="41.46" height="6.69" transform="translate(246.76 -192.37) rotate(45)"/></g><g><rect class="b" x="334.87" y="247.44" width="41.46" height="6.69" transform="translate(-76.2 304.61) rotate(-42.3)"/><rect class="b" x="334.87" y="247.44" width="41.46" height="6.69" transform="translate(281.49 -177.99) rotate(45)"/></g><g><rect class="b" x="388.83" y="198.34" width="41.46" height="6.69" transform="translate(-29.1 328.15) rotate(-42.3)"/><rect class="b" x="388.83" y="198.34" width="41.46" height="6.69" transform="translate(262.57 -230.54) rotate(45)"/></g><g><rect class="b" x="388.83" y="247.44" width="41.46" height="6.69" transform="translate(-62.15 340.94) rotate(-42.3)"/><rect class="b" x="388.83" y="247.44" width="41.46" height="6.69" transform="translate(297.29 -216.15) rotate(45)"/></g><g><g><ellipse class="d" cx="324.33" cy="181.17" rx="16.15" ry="13.92" transform="translate(-12.37 24.18) rotate(-4.19)"/><path class="d" d="M323.32,167.29s.17-75.94,21.32-94.38c0,0,3.64-19.67,25.63-6.88,0,0,10.7-2.66,20.54,2.88,0,0,34.9,10.58,18.88,19.89,0,0-5.47,4.68,12.33,19.7,0,0,7.91,8.86,1.1,14.99,0,0-13.31,6.61-8.97,16.3,0,0-53.42,14.17-77.81,38.05"/><path class="d" d="M308.23,182.35s-31.76,.68-29.38,43.06c0,0,5.17,24.65,33.73,16.3,0,0,15.79-4.39,22.75-28.31,0,0-4.4-30.36-8.36-34.88"/></g><g><ellipse class="f" cx="324.33" cy="181.17" rx="16.15" ry="13.92" transform="translate(-12.37 24.18) rotate(-4.19)"/><path class="f" d="M323.32,167.29s.17-75.94,21.32-94.38c0,0,3.64-19.67,25.63-6.88,0,0,10.7-2.66,20.54,2.88,0,0,34.9,10.58,18.88,19.89,0,0-5.47,4.68,12.33,19.7,0,0,7.91,8.86,1.1,14.99,0,0-13.31,6.61-8.97,16.3,0,0-53.42,14.17-77.81,38.05"/><path class="f" d="M308.23,182.35s-31.76,.68-29.38,43.06c0,0,5.17,24.65,33.73,16.3,0,0,15.79-4.39,22.75-28.31,0,0-4.4-30.36-8.36-34.88"/></g><g><ellipse class="e" cx="324.33" cy="181.17" rx="16.15" ry="13.92" transform="translate(-12.37 24.18) rotate(-4.19)"/><path class="e" d="M323.32,167.29s.17-75.94,21.32-94.38c0,0,3.64-19.67,25.63-6.88,0,0,10.7-2.66,20.54,2.88,0,0,34.9,10.58,18.88,19.89,0,0-5.47,4.68,12.33,19.7,0,0,7.91,8.86,1.1,14.99,0,0-13.31,6.61-8.97,16.3,0,0-53.42,14.17-77.81,38.05"/><path class="e" d="M308.23,182.35s-31.76,.68-29.38,43.06c0,0,5.17,24.65,33.73,16.3,0,0,15.79-4.39,22.75-28.31,0,0-4.4-30.36-8.36-34.88"/></g></g></svg>